HIERARCHY
ROOT Hips
{
	OFFSET -14.64140 90.27770 -84.91600
	CHANNELS 6 Xposition Yposition Zposition Zrotation Xrotation Yrotation
	JOINT Spine
	{
		OFFSET 0.00000 13.20850 -1.60436
		CHANNELS 3 Zrotation Xrotation Yrotation
		JOINT Spine1
		{
			OFFSET 0.00000 8.61716 0.00000
			CHANNELS 3 Zrotation Xrotation Yrotation
			JOINT Spine2
			{
				OFFSET 0.00000 8.61717 0.00000
				CHANNELS 3 Zrotation Xrotation Yrotation
				JOINT Spine3
				{
					OFFSET 0.00000 8.61717 0.00000
					CHANNELS 3 Zrotation Xrotation Yrotation
					JOINT Neck
					{
						OFFSET 0.00000 11.07920 1.10792
						CHANNELS 3 Zrotation Xrotation Yrotation
						JOINT Neck1
						{
							OFFSET 0.00000 7.08032 0.00000
							CHANNELS 3 Zrotation Xrotation Yrotation
							JOINT Head
							{
								OFFSET 0.00000 7.08031 0.00000
								CHANNELS 3 Zrotation Xrotation Yrotation
								End site
								{
									OFFSET 0.00000 0.00000 0.00000
								}
							}
						}
					}
					JOINT RightShoulder
					{
						OFFSET -0.01000 7.91373 5.19711
						CHANNELS 3 Zrotation Xrotation Yrotation
						JOINT RightArm
						{
							OFFSET -18.41580 0.00000 0.00000
							CHANNELS 3 Zrotation Xrotation Yrotation
							JOINT RightForeArm
							{
								OFFSET -29.11090 0.00000 0.00000
								CHANNELS 3 Zrotation Xrotation Yrotation
								JOINT RightHand
								{
									OFFSET -24.65040 0.00000 0.00000
									CHANNELS 3 Zrotation Xrotation Yrotation
									JOINT RightHandThumb1
									{
										OFFSET -5.35114 -0.85590 3.97906
										CHANNELS 3 Zrotation Xrotation Yrotation
										JOINT RightHandThumb2
										{
											OFFSET -4.52789 0.00000 0.00000
											CHANNELS 3 Zrotation Xrotation Yrotation
											JOINT RightHandThumb3
											{
												OFFSET -2.46976 0.00000 0.00000
												CHANNELS 3 Zrotation Xrotation Yrotation
												End site
												{
													OFFSET 0.00000 0.00000 0.00000
												}
											}
										}
									}
									JOINT RightHandIndex1
									{
										OFFSET -14.26970 0.00000 2.88139
										CHANNELS 3 Zrotation Xrotation Yrotation
										JOINT RightHandIndex2
										{
											OFFSET -5.48836 0.00000 0.00000
											CHANNELS 3 Zrotation Xrotation Yrotation
											JOINT RightHandIndex3
											{
												OFFSET -3.01859 0.00000 0.00000
												CHANNELS 3 Zrotation Xrotation Yrotation
												End site
												{
													OFFSET 0.00000 0.00000 0.00000
												}
											}
										}
									}
									JOINT RightHandMiddle1
									{
										OFFSET -14.26970 0.00000 -0.09147
										CHANNELS 3 Zrotation Xrotation Yrotation
										JOINT RightHandMiddle2
										{
											OFFSET -6.17441 0.00000 0.00000
											CHANNELS 3 Zrotation Xrotation Yrotation
											JOINT RightHandMiddle3
											{
												OFFSET -3.56743 0.00000 0.00000
												CHANNELS 3 Zrotation Xrotation Yrotation
												End site
												{
													OFFSET 0.00000 0.00000 0.00000
												}
											}
										}
									}
									JOINT RightHandRing1
									{
										OFFSET -12.69180 0.00000 -3.06433
										CHANNELS 3 Zrotation Xrotation Yrotation
										JOINT RightHandRing2
										{
											OFFSET -5.62556 0.00000 0.00000
											CHANNELS 3 Zrotation Xrotation Yrotation
											JOINT RightHandRing3
											{
												OFFSET -3.56744 0.00000 0.00000
												CHANNELS 3 Zrotation Xrotation Yrotation
												End site
												{
													OFFSET 0.00000 0.00000 0.00000
												}
											}
										}
									}
									JOINT RightHandPinky1
									{
										OFFSET -11.11390 0.00000 -6.03719
										CHANNELS 3 Zrotation Xrotation Yrotation
										JOINT RightHandPinky2
										{
											OFFSET -4.52789 0.00000 0.00000
											CHANNELS 3 Zrotation Xrotation Yrotation
											JOINT RightHandPinky3
											{
												OFFSET -2.46976 0.00000 0.00000
												CHANNELS 3 Zrotation Xrotation Yrotation
												End site
												{
													OFFSET 0.00000 0.00000 0.00000
												}
											}
										}
									}
								}
							}
						}
					}
					JOINT LeftShoulder
					{
						OFFSET 0.01000 7.91373 5.19711
						CHANNELS 3 Zrotation Xrotation Yrotation
						JOINT LeftArm
						{
							OFFSET 18.41580 0.00000 0.00000
							CHANNELS 3 Zrotation Xrotation Yrotation
							JOINT LeftForeArm
							{
								OFFSET 29.11090 0.00000 0.00000
								CHANNELS 3 Zrotation Xrotation Yrotation
								JOINT LeftHand
								{
									OFFSET 24.65040 0.00000 0.00000
									CHANNELS 3 Zrotation Xrotation Yrotation
									JOINT LeftHandThumb1
									{
										OFFSET 5.35114 -0.85590 3.97906
										CHANNELS 3 Zrotation Xrotation Yrotation
										JOINT LeftHandThumb2
										{
											OFFSET 4.52789 0.00000 0.00000
											CHANNELS 3 Zrotation Xrotation Yrotation
											JOINT LeftHandThumb3
											{
												OFFSET 2.46977 0.00000 0.00000
												CHANNELS 3 Zrotation Xrotation Yrotation
												End site
												{
													OFFSET 0.00000 0.00000 0.00000
												}
											}
										}
									}
									JOINT LeftHandIndex1
									{
										OFFSET 14.26970 0.00000 2.88139
										CHANNELS 3 Zrotation Xrotation Yrotation
										JOINT LeftHandIndex2
										{
											OFFSET 5.48836 0.00000 0.00000
											CHANNELS 3 Zrotation Xrotation Yrotation
											JOINT LeftHandIndex3
											{
												OFFSET 3.01859 0.00000 0.00000
												CHANNELS 3 Zrotation Xrotation Yrotation
												End site
												{
													OFFSET 0.00000 0.00000 0.00000
												}
											}
										}
									}
									JOINT LeftHandMiddle1
									{
										OFFSET 14.26970 0.00000 -0.09147
										CHANNELS 3 Zrotation Xrotation Yrotation
										JOINT LeftHandMiddle2
										{
											OFFSET 6.17440 0.00000 0.00000
											CHANNELS 3 Zrotation Xrotation Yrotation
											JOINT LeftHandMiddle3
											{
												OFFSET 3.56744 0.00000 0.00000
												CHANNELS 3 Zrotation Xrotation Yrotation
												End site
												{
													OFFSET 0.00000 0.00000 0.00000
												}
											}
										}
									}
									JOINT LeftHandRing1
									{
										OFFSET 12.69180 0.00000 -3.06433
										CHANNELS 3 Zrotation Xrotation Yrotation
										JOINT LeftHandRing2
										{
											OFFSET 5.62556 0.00000 0.00000
											CHANNELS 3 Zrotation Xrotation Yrotation
											JOINT LeftHandRing3
											{
												OFFSET 3.56744 0.00000 0.00000
												CHANNELS 3 Zrotation Xrotation Yrotation
												End site
												{
													OFFSET 0.00000 0.00000 0.00000
												}
											}
										}
									}
									JOINT LeftHandPinky1
									{
										OFFSET 11.11390 0.00000 -6.03719
										CHANNELS 3 Zrotation Xrotation Yrotation
										JOINT LeftHandPinky2
										{
											OFFSET 4.52789 0.00000 0.00000
											CHANNELS 3 Zrotation Xrotation Yrotation
											JOINT LeftHandPinky3
											{
												OFFSET 2.46976 0.00000 0.00000
												CHANNELS 3 Zrotation Xrotation Yrotation
												End site
												{
													OFFSET 0.00000 0.00000 0.00000
												}
											}
										}
									}
								}
							}
						}
					}
					JOINT pCube4
					{
						OFFSET 0.00000 10.91090 1.10792
						CHANNELS 3 Zrotation Xrotation Yrotation
						End site
						{
							OFFSET 0.00000 0.00000 0.00000
						}
					}
				}
			}
		}
	}
	JOINT RightUpLeg
	{
		OFFSET -9.98441 0.00000 0.00000
		CHANNELS 3 Zrotation Xrotation Yrotation
		JOINT RightLeg
		{
			OFFSET 0.00000 -42.11790 0.00000
			CHANNELS 3 Zrotation Xrotation Yrotation
			JOINT RightFoot
			{
				OFFSET 0.00000 -45.00020 -0.00001
				CHANNELS 3 Zrotation Xrotation Yrotation
				JOINT RightForeFoot
				{
					OFFSET 0.00000 -3.74820 0.00000
					CHANNELS 3 Zrotation Xrotation Yrotation
					JOINT RightToeBase
					{
						OFFSET 0.00000 0.06325 14.43120
						CHANNELS 3 Zrotation Xrotation Yrotation
						End site
						{
							OFFSET 0.00000 0.00000 0.00000
						}
					}
				}
			}
		}
	}
	JOINT LeftUpLeg
	{
		OFFSET 9.98441 0.00000 0.00000
		CHANNELS 3 Zrotation Xrotation Yrotation
		JOINT LeftLeg
		{
			OFFSET 0.00000 -42.11800 0.00000
			CHANNELS 3 Zrotation Xrotation Yrotation
			JOINT LeftFoot
			{
				OFFSET 0.00000 -45.00070 0.00000
				CHANNELS 3 Zrotation Xrotation Yrotation
				JOINT LeftForeFoot
				{
					OFFSET 0.00000 -3.74824 0.00000
					CHANNELS 3 Zrotation Xrotation Yrotation
					JOINT LeftToeBase
					{
						OFFSET 0.00000 0.06325 14.43110
						CHANNELS 3 Zrotation Xrotation Yrotation
						End site
						{
							OFFSET 0.00000 0.00000 0.00000
						}
					}
				}
			}
		}
	}
}
MOTION
Frames: 4
Frame Time: 0.050000
-0.014016693020030214 0.02134247204329488 -0.005652174591725696 -0.0037849575461970683 -0.04272405194288724 0.026607979071648188 -3.620420662099379 6.110167859140445 -0.6937925673865868 -1.067370997490109 4.071040233004974 0.4454250413206954 -1.0019608357450818 0.7681397346656813 -0.01679852428100806 1.1914962965906417 1.0389781144930523 -0.7811419743822673 0.04804111788218074 9.678917744554266 -1.1539606850412514 -0.4145748050985556 -1.6180537517753069 -5.9577968147202 0.01419764061089774 -16.164034066561157 -0.4319402928035517 4.689541859204861 -0.8281607994493523 -14.466310768200936 62.584520097415464 17.409469014167918 12.938826878445369 17.977312618245712 6.142787094329939 94.32060932355725 13.838969844243659 -0.29075196405426074 -7.919541198287103 4.487175799840679 -0.11461646954868182 -1.598360811586096 -0.014980141005174174 0.011131053063130468 -56.20647376389117 0.030978482520741438 0.005629766964304154 -56.245019220728764 -38.76374844577965 0.017556324915948853 0.023244582929164124 -0.01816335877639482 0.0205796243975781 -0.023262257537489586 -0.017248821776192427 0.017212801525806662 -0.007167456495517498 -36.650948182893735 0.017727912351770816 0.0031535760037495445 0.012097423228460042 -0.008417742293791762 0.017060623497811404 0.025757624527621942 -0.013111686692682175 0.01378019096259418 -19.76687387589425 0.021613166326151928 0.03823981589760137 -0.007216655831580821 -0.047010169701553355 -0.0027408587623123063 -0.0028102175833971143 0.028143855120975277 -0.03865575933501826 24.067851855429634 0.0032566583656183676 0.04231048531016379 28.8857007787546 -0.010508043291410902 -0.03194559837383329 28.896898037286967 0.02533211977503753 -0.049983247118862345 -4.955431626877817 -0.568093379138556 12.89621715453457 -62.47726580599823 28.193757113752234 -7.356927691349492 -2.253951204973275 3.8152540176575784 -63.86666837176401 -13.575899659775773 3.8846523457551996 0.351991651432853 -0.4611980379516919 0.040194103291710984 -8.16093241678588 -0.007896440937409963 -0.0330624456798835 44.52146268263771 0.01255604249801314 -0.025650188212004713 44.56912539136938 12.462872577727527 -0.04623952850965847 0.04367632781621844 0.004687977556247752 -0.014603066340326763 0.01207776719120078 -0.032958532765857675 -0.0195965704540428 -0.0025807337532625842 11.122767935991835 0.007791036637939639 -0.009236869273585793 -0.0035323488583282746 -0.018594757457248527 0.005582564874570682 -0.012524262161437046 -0.007762631772293348 0.01434614606634959 4.739316773697634 0.01274129965110824 0.024149460839079605 0.0009951455568789566 0.04118760042033039 0.01676606812746059 0.0035050381629837327 0.003908947212034726 0.03240072356658611 -5.573953306276715 0.010041872826957345 -0.019137005853705657 -6.713282893685464 -0.04836230857964521 -0.04580981621762624 -6.706762122960591 -0.03331928080610956 0.006645455431008537 0.042850481752658605 0.024773445090335012 -0.023172262410817174 8.02042320352973 3.5157949245779525 -19.225170359750845 0.04129956188356617 10.41698905070402 0.02335013149747604 -5.606804719354483 -15.65502499605041 3.213710089673566 -0.001646375679043909 -0.04407622991920635 0.0007752507932173398 -0.03747444838725229 4.692089908728383 0.0347336655415316 12.464264388387733 -8.243805204273672 6.854210739962437 -0.003148628825790159 46.42463631026581 0.009280864454605842 -4.320360248096285 -14.744961145584794 -3.806982714187134 -0.023139230131700887 0.008710118220462514 0.010222125393925858 -0.0042596873302180255 -10.77577034993848 -0.010541562957184725 
-0.027092301408527072 -0.02502047457694433 -0.04234001676087133 0.035888087634097655 0.01684125217631038 0.03187073142739919 -3.6153779616800334 6.286332314817538 -0.7639608161824876 -1.064594659164529 4.052294212052604 0.4472541317028538 -1.030550155971737 0.7401505152894496 -0.09761233791410427 1.1945366377104099 0.9961418741125594 -0.7731976779935366 -0.07187050321557717 9.487709313185073 -1.124272472529182 -0.49303102327946113 -1.7584323129562263 -5.995472477861735 0.027023657856754025 -16.299970192706756 -0.42625686140580266 4.823451391631173 -0.7873018502681457 -14.353477952449662 62.684062027102 17.042641908842782 12.577123468593415 19.593681207175344 6.713421095541187 93.8336597406394 14.220787910720516 -0.3260690699118147 -8.091344574322548 4.5396134763444005 -0.11099831330684423 -1.5839276768175012 0.016169065715866744 0.014191542400385315 -56.199532757481215 0.039293181221741226 0.008721599304882855 -56.23944682564634 -38.77759405448789 -0.019358135732674166 2.1584931313126646e-05 0.021988253293605774 0.022589674571455602 0.04914883006351004 0.0130064561797291 -0.04507869334455923 -0.003480118840479513 -36.720864308839694 -0.00606457031810443 -0.04256721818304906 -0.027319590309036103 -0.007364197710326966 0.006358063070669269 0.04781635605078819 -0.014492918075230201 -0.022281775153793818 -19.742125147125154 -0.015739611495866536 0.001778311474419391 0.03298633011607975 0.028732835290839004 -0.002555576226201031 0.030464709762738896 -0.03484165092379612 -0.008449951332012394 24.00766151403001 -0.023981544795797317 -0.004857142325304431 28.872361667760963 0.017244588071847887 0.009111835313175672 28.871969455916513 -0.04743193871184245 -0.00811481136957947 -4.9403028113917244 -0.5541055035636059 12.800615668403907 -62.180894395368135 28.276841030881542 -7.716987696376137 -3.8372621906192044 4.461878551750776 -66.36712580008 -13.955834110690875 3.387341431762043 0.5905430252689772 -0.4383647653142195 0.0972928352572562 -8.115845746312964 -0.042145397689492214 0.024885547145766542 44.6002394759545 -0.04163705009724232 0.01964973635424998 44.5677966693482 12.431664381360852 0.02147565246367028 -0.048401340229846684 -0.046401712508132936 -0.002522908378290664 -0.04624103479059554 -0.03704936214583507 -0.04644431984065863 -0.042717967268321236 11.12744773436609 0.018729713771813455 -0.03914992828179996 -0.04600973836035522 0.01568334859679975 -0.0008665961453511304 0.014706643122953606 -0.004815809744664149 0.015823703566676513 4.81585047601112 0.012518198801724537 0.01501918646640111 -0.04553305684501696 0.041960699147635 -0.04098817558881822 -0.03231624137064544 -0.0452293561813784 0.011547441928953201 -5.551312470072375 0.004733986996576329 0.049259282021856456 -6.709869635365873 0.002749533393108458 -0.011086333386102787 -6.694449025095069 -0.03410283954907345 0.03187253179408453 -0.02326730876770597 -0.03040881063889992 -0.01595915993451998 8.036562101336655 3.5050015059057755 -19.238692644525585 0.0037686808448066595 10.398432029751717 0.0596470825485369 -5.596486334785151 -15.687260427055188 3.222943941966548 0.014710404537416734 -0.012438375232259883 0.04756233938162711 0.00531293823709988 4.6763048248945 0.010349804676947441 12.444883120093937 -8.215153710431688 6.925075473629301 -0.00351240086436438 46.38485130817276 -0.027964316696275235 -4.369647954461345 -14.749606058128647 -3.813029378596717 0.031641398922021516 0.022648001817819462 0.020872452088688147 0.04334744014513103 -10.780757275807474 0.03383039206690008 
-0.00853208724211327 -0.009897151928786513 -0.038771710064109136 -0.043059324909316736 0.02723026999494047 -0.04719031794873006 -3.472718791152593 6.277147822820445 -0.7410604980338722 -0.9937466909290609 4.080563483237689 0.47054821117447054 -0.9904294628842181 0.7730462723098022 -0.21355307905727877 1.1723383057438546 1.0294576347660043 -0.8645869599170136 -0.0795683589470205 9.387582432218231 -1.0771926815337494 -0.47469058229698957 -1.7546223906871599 -5.7453704215670935 0.026230408149218034 -16.4240561822243 -0.4482200204391987 4.757999582779172 -0.760304176561511 -14.22239212182523 63.10650140178847 16.90830995380952 12.074825034217719 21.624910949649397 7.232730564070905 93.82874545789856 14.652806269036166 -0.3093168441477243 -8.220584034485668 4.538215676072411 -0.1005238950291215 -1.58914787643957 0.024631494974831226 -0.0017199963766616091 -56.280575269580446 0.028801681028088395 -0.0006916579601475401 -56.219803450778194 -38.76196205019571 0.026471252857781836 0.021942072436397453 -0.014247225142155484 0.038810234337775265 0.007215195182552455 0.021739923578319335 0.034832048656435986 0.04271869445171467 -36.6872693654839 0.002813466637315244 -0.006101279071545709 0.03315115835720358 -0.03482704141215357 0.03651375274522375 -0.013917543995370572 0.03572013679607267 -0.012435759530046652 -19.7628332744402 -0.004177666434862627 -0.015534881926380908 -0.010498737271279457 0.03098828198026965 -0.02331103367663819 -0.04646305070808471 0.012019324282158819 -0.012813870287522856 24.061339655906178 0.004379659614865732 -0.0008058405694602395 28.85031024770382 0.027819215013105542 -0.018653296420977357 28.838916132608333 0.004478118005169304 -0.011165070303748416 -4.603050630345892 -0.41656353785044714 12.596158886715862 -62.15031032495799 28.517473010658946 -8.264136455982714 -5.845035202081333 5.040079578119691 -69.49100047741463 -14.111938507247485 2.747381520669716 0.759915736686431 -0.4376766309688187 0.056885291691868796 -8.127329120987135 -0.011035657938547504 0.021570882605752732 44.594857531252686 -0.03730280124863612 -0.04880817424374121 44.54665841662018 12.425169170919933 -0.0009484993780757559 -0.017320296679405017 -0.017970963875276934 0.029573479689919812 -0.02095140025930934 0.009607687310259488 0.027302319174142005 0.020937739795476036 11.063045588577477 0.01692732917733587 -0.007579044057120027 -0.009112086423250903 -0.023805297681544744 -0.03706682963434118 0.006928707991894988 -0.0391383739395001 -0.044438350189389374 4.804409281742965 0.023403460008433637 -0.047145777581267194 -0.031915791088216995 0.033747326880160994 -0.019046408526526507 0.023762163181781915 -0.010465060277875334 0.030407970387794508 -5.570179293753884 0.043007891983452326 0.015020776175396183 -6.739340285713299 -0.02331703702637166 0.02111898997511519 -6.758656219504677 0.02333855584407426 0.03101403094640859 -0.009015918668200349 0.0026749171690654844 0.01388253307534257 8.081920729880773 3.4875090563538333 -19.20871750188297 -0.04757712936385545 10.412935682329412 -0.018765324577583623 -5.633917312165025 -15.659709579641717 3.170371415656681 0.04822238390525184 -0.0018123222998141777 0.02455084938005327 -0.013095951120157732 4.6951208271605465 0.0061225796661249785 12.429987499835985 -8.201606117328055 6.853318043538291 0.044186005337547185 46.37806052596752 0.04932483654866558 -4.354808074909141 -14.707693938331806 -3.831767428350686 -0.027614260006161618 -0.032322254850300235 -0.015815829437964637 0.02134708861751984 -10.707368578841058 -0.04338043239905591 
-0.010059718162042668 0.026710771622854446 -0.011089586346266344 -0.040770083186340726 -0.001452652651292339 0.040362520057224134 -3.2932590235692936 6.243006962325765 -0.7267594896844746 -1.0351024028608493 3.9813525675507537 0.4211430655798685 -0.9669065558779262 0.6709706595741204 -0.26857983680242536 1.118489962311131 0.9513684929961632 -0.7859229657251676 -0.10129210084283317 9.412001653254896 -0.9860204647721204 -0.38659568003273836 -1.7831889013046196 -5.478060349310726 -0.005782188946693944 -16.45021092399335 -0.3722586727865719 4.587609494388433 -0.7461400094803331 -14.129269132634997 63.58119206209482 16.63776798284315 11.574582915989296 24.037608915859284 7.691533106302936 94.00730218423867 14.946452530528815 -0.21620065781551465 -8.371293164712048 4.558426323620014 -0.09933180675024501 -1.5671147664755398 -0.0018606724092092013 -0.009598822921103369 -56.188694951854735 0.011351242957059115 0.013858007886096405 -56.1997764601532 -38.750356082953 -0.02779379910209259 0.01269269630233463 0.026289917880889184 0.022283098530356354 0.014815740868462839 -0.024130234553438688 0.012121403266018313 0.02001589263116419 -36.733200663873305 0.007555292324597829 -0.034182966810915046 0.008288743939865147 0.04048561834311965 0.02626617578743896 -0.0039419341299819196 -0.012853039054701353 0.0420517022296117 -19.74457064601117 0.015883912267396934 -0.012298999510088882 -0.0011253738258903132 -0.012956831462616983 -0.04477067217661976 -0.02561194129842901 -0.020791266238179902 -0.03826920867686311 24.08714433933956 -0.04173948639923941 -0.006315111126573177 28.832076188715266 0.0330487286341862 -0.006484760428015972 28.858877991953754 -0.01284729365090578 -0.010097061717551396 -4.216595668196199 -0.35214462966537485 12.449794691569885 -62.214486003799294 28.72828229738136 -8.92418117387673 -7.998419730528174 5.58250642379135 -73.00466639642562 -14.223896218736751 2.276303321315262 0.8640022096016851 -0.5218614306992062 0.026302715857301665 -8.136611301677863 0.015156283762327711 0.003767254607055153 44.57345012658866 -0.016730381591425515 -0.04643129794046986 44.55633741040119 12.457930414527612 0.005014504166556509 0.02006510205104701 -0.029901819106556902 -0.03558826771728184 -0.006879626122834656 0.027505365835885778 0.04685577685314809 -0.0009530918132216991 11.089529648523094 0.003407977448820821 -0.01160706315204913 -0.03534113122187552 -0.03141557695175361 0.0226194032537009 0.0036082696885562553 0.007651671466577308 0.03743481930522085 4.803900863543138 0.02768275997358715 0.00378706063746989 -0.012926432155629964 -0.012756320210888447 0.0443191877557567 -0.0172547105792982 -0.027765946495350514 -0.046778453142338985 -5.607824259616662 -0.030565376243824015 0.0194916088605043 -6.6857563455928 -0.013514918712213289 -0.026590689345172742 -6.673389079315049 -0.03889059158488425 -0.007730011529682904 0.019525209470222158 0.014353571746013743 0.04843313783066043 8.0885236115926 3.540725702600613 -19.249042858083005 0.022568631513161012 10.37672537358504 -0.003261993444077793 -5.606366061121782 -15.655830043167223 3.2067479753068824 -0.030128713039180664 -0.00461349759349215 -0.0032084693806127425 -0.005046659708774823 4.729949642835854 -0.03564745291501882 12.509312207614643 -8.222542239490924 6.890881821257009 -0.043464191875839504 46.37935468523473 0.0006529630088961023 -4.283430515693383 -14.72550611810499 -3.8047998059957373 -0.005188521052425712 0.027660046372272602 0.015629077944667724 -0.027879779126861622 -10.737926129347224 -0.0032733522752903194 
